<svg width="20" height="20" viewBox="0 0 20 20" fill="none" xmlns="http://www.w3.org/2000/svg">
<path d="M13.5681 2C14.1934 2.00023 14.7185 2.47036 14.7878 3.0918L15.3376 8.03711C15.6659 10.9933 13.538 13.6027 10.6667 13.957V17.333H12.6667C13.0348 17.3332 13.3337 17.6319 13.3337 18C13.3337 18.3681 13.0348 18.6668 12.6667 18.667H7.33373C6.96558 18.667 6.6668 18.3681 6.66674 18C6.66674 17.6318 6.96554 17.333 7.33373 17.333H9.33373V13.957C6.46221 13.603 4.33455 10.9935 4.66284 8.03711L5.21166 3.0918C5.28096 2.47018 5.80686 2 6.43237 2H13.5681Z" fill="#FF006A"/>
<path d="M12.7744 3.02832C13.261 3.02832 13.6699 3.39428 13.7236 3.87793L14.0742 7.02832H5.92578L6.27637 3.87793C6.33009 3.39443 6.73818 3.02855 7.22461 3.02832H12.7744Z" fill="#FFC9E0"/>
</svg>
