<svg width="22" height="22" viewBox="0 0 22 22" fill="none" xmlns="http://www.w3.org/2000/svg">
<circle cx="11" cy="11" r="10.5" fill="#FF006A" stroke="white"/>
<path d="M13.1409 6.2002C13.5161 6.20034 13.8312 6.48241 13.8728 6.85527L14.2027 9.82246C14.3996 11.5962 13.1229 13.1618 11.4001 13.3744V15.4H12.6001C12.821 15.4001 13.0003 15.5793 13.0003 15.8002C13.0003 16.021 12.8209 16.2003 12.6001 16.2004H9.40031C9.17942 16.2004 9.00015 16.0211 9.00012 15.8002C9.00012 15.5793 9.1794 15.4 9.40031 15.4H10.6003V13.3744C8.8774 13.162 7.6008 11.5963 7.79777 9.82246L8.12707 6.85527C8.16865 6.4823 8.48419 6.2002 8.85949 6.2002H13.1409Z" fill="white"/>
<path d="M12.6647 6.81738C12.9567 6.81738 13.202 7.03696 13.2343 7.32715L13.4446 9.21738H8.55554L8.76589 7.32715C8.79813 7.03705 9.04298 6.81752 9.33484 6.81738H12.6647Z" fill="#FF006A"/>
</svg>
