<svg width="22" height="22" viewBox="0 0 22 22" fill="none" xmlns="http://www.w3.org/2000/svg">
<circle cx="11" cy="11" r="10.5" fill="#8555FF" stroke="white"/>
<path d="M14.244 13.5205C14.4489 13.5205 14.615 13.7488 14.615 14.0305C14.615 14.3122 14.4489 14.5405 14.244 14.5405H6.82587C6.62102 14.5405 6.45496 14.3122 6.45496 14.0305C6.45496 13.7488 6.62102 13.5205 6.82587 13.5205H14.244Z" fill="white"/>
<path d="M14.6152 7.40039L14.7072 7.40273C15.65 7.45078 16.3998 8.23041 16.4 9.18516C16.3999 10.14 15.6501 10.9201 14.7072 10.9682L14.6152 10.9705H13.9589C13.231 12.1918 11.8975 13.0102 10.3724 13.0102C8.06801 13.01 6.19997 11.1421 6.19995 8.8377V7.40039H14.6152ZM14.5455 8.8377C14.5455 9.3168 14.4638 9.77675 14.3152 10.2053H14.6152C15.1783 10.2051 15.6353 9.74834 15.6353 9.18516C15.6352 8.62205 15.1783 8.16581 14.6152 8.16562H14.5455V8.8377Z" fill="white"/>
</svg>
