<svg width="20" height="20" viewBox="0 0 20 20" fill="none" xmlns="http://www.w3.org/2000/svg">
<path d="M15.4066 14.2002C15.748 14.2002 16.0248 14.5808 16.0248 15.0502C16.0248 15.5196 15.748 15.9002 15.4066 15.9002H3.04299C2.70157 15.9002 2.4248 15.5196 2.4248 15.0502C2.4248 14.5808 2.70157 14.2002 3.04299 14.2002H15.4066Z" fill="#CDB9FF"/>
<path d="M16.0254 4L16.1787 4.00391C17.7501 4.08398 18.9998 5.38336 19 6.97461C18.9999 8.566 17.7502 9.86622 16.1787 9.94629L16.0254 9.9502H14.9316C13.7184 11.9857 11.4959 13.3496 8.9541 13.3496C5.11343 13.3494 2.00003 10.2362 2 6.39551V4H16.0254ZM15.9092 6.39551C15.9092 7.19402 15.7731 7.9606 15.5254 8.6748H16.0254C16.964 8.67449 17.7255 7.91326 17.7256 6.97461C17.7254 6.0361 16.9639 5.2757 16.0254 5.27539H15.9092V6.39551Z" fill="#8555FF"/>
</svg>
