<svg width="22" height="22" viewBox="0 0 22 22" fill="none" xmlns="http://www.w3.org/2000/svg">
<circle cx="11" cy="11" r="10.5" fill="#F94239" stroke="white"/>
<g clip-path="url(#clip0_759_15049)">
<path d="M14.28 5.69793C14.6173 5.3607 15.1906 5.64171 15.1303 6.11473C15.0887 6.43946 15.3652 6.71594 15.6899 6.6744C16.1629 6.61409 16.4439 7.18688 16.1067 7.5241L14.9552 8.67566C14.8415 8.78931 14.6935 8.86201 14.5341 8.88245L13.2746 9.04358L11.3754 10.9433C11.2336 11.0851 11.0037 11.085 10.8619 10.9433C10.72 10.8015 10.72 10.5712 10.8619 10.4293L12.7605 8.53011L12.9217 7.27059C12.9421 7.11109 13.0153 6.96266 13.129 6.84896L14.28 5.69793Z" fill="white"/>
<path d="M8.6792 10.6326C8.6792 9.26077 9.79153 8.14844 11.1633 8.14844C11.3593 8.14848 11.5178 8.30752 11.5178 8.50347C11.5178 8.69941 11.3593 8.85845 11.1633 8.8585C10.1835 8.8585 9.38926 9.65271 9.38926 10.6326C9.3893 11.6124 10.1835 12.4066 11.1633 12.4066C12.1431 12.4066 12.9374 11.6124 12.9374 10.6326C12.9374 10.4366 13.0965 10.2775 13.2924 10.2775C13.4883 10.2776 13.6469 10.4367 13.6469 10.6326C13.6469 12.0043 12.5351 13.1161 11.1633 13.1162C9.79156 13.1162 8.67924 12.0043 8.6792 10.6326Z" fill="white"/>
<path d="M6.55017 10.583C6.55017 8.03534 8.61578 5.96973 11.1634 5.96973C11.3593 5.96982 11.5179 6.12884 11.5179 6.32476C11.5179 6.52067 11.3593 6.6797 11.1634 6.67979C9.00773 6.67979 7.26023 8.42728 7.26023 10.583C7.26032 12.7386 9.00778 14.4861 11.1634 14.4861C13.319 14.486 15.0665 12.7385 15.0666 10.583C15.0666 10.3871 15.2252 10.228 15.4211 10.2279C15.617 10.2279 15.7761 10.387 15.7761 10.583C15.776 13.1304 13.7109 15.1956 11.1634 15.1957C8.61584 15.1957 6.55026 13.1305 6.55017 10.583Z" fill="white"/>
</g>
<defs>
<clipPath id="clip0_759_15049">
<rect width="11" height="11" fill="white" transform="translate(6 5)"/>
</clipPath>
</defs>
</svg>
