<svg width="20" height="20" viewBox="0 0 20 20" fill="none" xmlns="http://www.w3.org/2000/svg">
<path d="M15.0547 1.26932C15.6679 0.656165 16.7104 1.1671 16.6006 2.02713C16.5251 2.61755 17.0278 3.12025 17.6182 3.04471C18.4781 2.93507 18.989 3.9765 18.376 4.58963L16.2823 6.68338C16.0756 6.89001 15.8065 7.02219 15.5166 7.05936L13.2266 7.35233L9.7735 10.8064C9.51569 11.0641 9.09779 11.064 8.83991 10.8064C8.58201 10.5485 8.58201 10.1298 8.83991 9.87186L12.292 6.41873L12.585 4.1287C12.6221 3.83869 12.7552 3.56883 12.962 3.36209L15.0547 1.26932Z" fill="#F94239"/>
<path d="M4.87109 10.1514C4.87109 7.65719 6.89352 5.63477 9.3877 5.63477C9.74394 5.63485 10.0322 5.92401 10.0322 6.28027C10.0322 6.63653 9.74394 6.9257 9.3877 6.92578C7.60614 6.92578 6.16211 8.36981 6.16211 10.1514C6.16219 11.9329 7.60619 13.377 9.3877 13.377C11.1691 13.3769 12.6132 11.9328 12.6133 10.1514C12.6133 9.79506 12.9025 9.50586 13.2588 9.50586C13.615 9.50602 13.9033 9.79516 13.9033 10.1514C13.9032 12.6454 11.8817 14.6669 9.3877 14.667C6.89357 14.667 4.87118 12.6455 4.87109 10.1514Z" fill="#FFBFBF"/>
<path d="M1 10.1514C1 5.51933 4.75566 1.76367 9.3877 1.76367C9.74387 1.76383 10.0322 2.05297 10.0322 2.40918C10.0322 2.76539 9.74387 3.05452 9.3877 3.05469C5.46828 3.05469 2.29102 6.23195 2.29102 10.1514C2.29118 14.0706 5.46838 17.248 9.3877 17.248C13.3069 17.2479 16.4842 14.0705 16.4844 10.1514C16.4844 9.79518 16.7728 9.50606 17.1289 9.50586C17.4852 9.50586 17.7744 9.79506 17.7744 10.1514C17.7743 14.7832 14.0195 18.5379 9.3877 18.5381C4.75576 18.5381 1.00016 14.7833 1 10.1514Z" fill="#FF8E8E"/>
</svg>
