<svg width="20" height="20" viewBox="0 0 20 20" fill="none" xmlns="http://www.w3.org/2000/svg">
<path d="M2 4C2 2.89543 2.89543 2 4 2H12C13.1046 2 14 2.89543 14 4V18H4C2.89543 18 2 17.1046 2 16V4Z" fill="#0091FF"/>
<path d="M16 8C17.1046 8 18 8.89543 18 10V16C18 17.1046 17.1046 18 16 18H14V8H16Z" fill="#6BBFFF"/>
<path d="M6 14C6 13.4477 6.44772 13 7 13H9C9.55228 13 10 13.4477 10 14V18H6V14Z" fill="white"/>
<path d="M5 5C5 4.44772 5.44772 4 6 4C6.55228 4 7 4.44772 7 5V6C7 6.55228 6.55228 7 6 7C5.44772 7 5 6.55228 5 6V5Z" fill="white"/>
<path d="M9 5C9 4.44772 9.44772 4 10 4C10.5523 4 11 4.44772 11 5V6C11 6.55228 10.5523 7 10 7C9.44772 7 9 6.55228 9 6V5Z" fill="white"/>
<path d="M5 9C5 8.44772 5.44772 8 6 8C6.55228 8 7 8.44772 7 9V10C7 10.5523 6.55228 11 6 11C5.44772 11 5 10.5523 5 10V9Z" fill="white"/>
<path d="M9 9C9 8.44772 9.44772 8 10 8C10.5523 8 11 8.44772 11 9V10C11 10.5523 10.5523 11 10 11C9.44772 11 9 10.5523 9 10V9Z" fill="white"/>
</svg>
