<svg width="22" height="22" viewBox="0 0 22 22" fill="none" xmlns="http://www.w3.org/2000/svg">
<circle cx="11" cy="11" r="10.5" fill="#0091FF" stroke="white"/>
<path d="M7.19995 7.4002C7.19995 6.73745 7.73721 6.2002 8.39995 6.2002H13.2C13.8627 6.2002 14.4 6.73745 14.4 7.4002V15.8002H8.39995C7.73721 15.8002 7.19995 15.2629 7.19995 14.6002V7.4002Z" fill="white"/>
<path d="M15.5999 9.7998C16.2626 9.7998 16.7999 10.3371 16.7999 10.9998V14.5998C16.7999 15.2625 16.2626 15.7998 15.5999 15.7998H14.3999V9.7998H15.5999Z" fill="#6BBFFF"/>
<path d="M9.59998 13.3998C9.59998 13.0684 9.8686 12.7998 10.2 12.7998H11.4C11.7313 12.7998 12 13.0684 12 13.3998V15.7998H9.59998V13.3998Z" fill="#0091FF"/>
<path d="M9 8.00039C9 7.66902 9.26863 7.40039 9.6 7.40039C9.93137 7.40039 10.2 7.66902 10.2 8.00039V8.60039C10.2 8.93176 9.93137 9.20039 9.6 9.20039C9.26863 9.20039 9 8.93176 9 8.60039V8.00039Z" fill="#0091FF"/>
<path d="M11.3999 8.00039C11.3999 7.66902 11.6685 7.40039 11.9999 7.40039C12.3313 7.40039 12.5999 7.66902 12.5999 8.00039V8.60039C12.5999 8.93176 12.3313 9.20039 11.9999 9.20039C11.6685 9.20039 11.3999 8.93176 11.3999 8.60039V8.00039Z" fill="#0091FF"/>
<path d="M9 10.3998C9 10.0684 9.26863 9.7998 9.6 9.7998C9.93137 9.7998 10.2 10.0684 10.2 10.3998V10.9998C10.2 11.3312 9.93137 11.5998 9.6 11.5998C9.26863 11.5998 9 11.3312 9 10.9998V10.3998Z" fill="#0091FF"/>
<path d="M11.3999 10.3998C11.3999 10.0684 11.6685 9.7998 11.9999 9.7998C12.3313 9.7998 12.5999 10.0684 12.5999 10.3998V10.9998C12.5999 11.3312 12.3313 11.5998 11.9999 11.5998C11.6685 11.5998 11.3999 11.3312 11.3999 10.9998V10.3998Z" fill="#0091FF"/>
</svg>
