<svg width="22" height="22" viewBox="0 0 22 22" fill="none" xmlns="http://www.w3.org/2000/svg">
<circle cx="11" cy="11" r="10.5" fill="#FFA100" stroke="white"/>
<path d="M8.61187 6.7998C8.85093 6.7998 9.04487 6.99376 9.04488 7.23281V10.4625C9.33753 10.4245 9.54559 10.3199 9.69879 10.1848C9.89897 10.008 10.043 9.7478 10.133 9.41836C10.316 8.74794 10.2432 7.90751 10.1078 7.33184C10.0531 7.09916 10.1974 6.86627 10.43 6.81152C10.6627 6.75688 10.8956 6.90114 10.9503 7.13379C11.1035 7.78453 11.2034 8.78374 10.9679 9.64629C10.8487 10.0832 10.6354 10.5131 10.2712 10.8346C9.95156 11.1165 9.54232 11.2901 9.04488 11.3332V14.5916C9.04472 14.8305 8.85084 15.024 8.61187 15.024C8.37297 15.0239 8.17902 14.8305 8.17886 14.5916V11.3232C7.71947 11.2684 7.33823 11.1004 7.03687 10.8346C6.67268 10.5131 6.45945 10.0832 6.34019 9.64629C6.10478 8.78377 6.20467 7.78452 6.35777 7.13379C6.4125 6.9012 6.64548 6.75699 6.87808 6.81152C7.11077 6.86627 7.25505 7.09916 7.20035 7.33184C7.0649 7.90751 6.99275 8.74795 7.17574 9.41836C7.2657 9.74788 7.40964 10.008 7.60992 10.1848C7.74791 10.3065 7.9302 10.403 8.17886 10.449V7.23281C8.17887 6.99381 8.37288 6.79988 8.61187 6.7998Z" fill="white"/>
<path d="M13.7448 6.7998L13.8561 6.80332C14.9996 6.87292 15.9091 8.00729 15.9092 9.39668C15.9092 10.653 15.1656 11.7012 14.1778 11.942V14.591C14.1778 14.8301 13.9838 15.024 13.7448 15.024C13.5057 15.024 13.3118 14.8301 13.3118 14.591V11.942C12.3239 11.7013 11.5803 10.6531 11.5803 9.39668C11.5804 7.96244 12.5495 6.7998 13.7448 6.7998Z" fill="white"/>
</svg>
