<svg width="20" height="20" viewBox="0 0 20 20" fill="none" xmlns="http://www.w3.org/2000/svg">
<path d="M6.01966 3C6.4181 3 6.74133 3.32326 6.74134 3.72168V9.10449C7.2291 9.04112 7.57585 8.86691 7.83119 8.6416C8.16483 8.34695 8.40495 7.91333 8.55482 7.36426C8.85981 6.24689 8.73859 4.84618 8.51283 3.88672C8.42166 3.49893 8.66213 3.11078 9.04994 3.01953C9.4377 2.92846 9.82589 3.1689 9.91713 3.55664C10.1723 4.64121 10.3388 6.30656 9.94642 7.74414C9.74766 8.47231 9.39228 9.18891 8.78529 9.72461C8.25248 10.1946 7.57042 10.4838 6.74134 10.5557V15.9863C6.74108 16.3845 6.41795 16.707 6.01966 16.707C5.62149 16.7069 5.29825 16.3845 5.29799 15.9863V10.5391C4.53232 10.4477 3.89693 10.1677 3.39466 9.72461C2.78767 9.18891 2.4323 8.47231 2.23353 7.74414C1.84118 6.30661 2.00767 4.64119 2.26283 3.55664C2.35404 3.16899 2.74235 2.92864 3.13002 3.01953C3.51783 3.11078 3.7583 3.49892 3.66713 3.88672C3.44137 4.84618 3.32113 6.24691 3.62611 7.36426C3.77604 7.91346 4.01594 8.34698 4.34974 8.6416C4.57973 8.84454 4.88354 9.00533 5.29799 9.08203V3.72168C5.298 3.32334 5.62134 3.00013 6.01966 3Z" fill="#FFA200"/>
<path d="M14.5747 3L14.7603 3.00586C16.666 3.12186 18.182 5.01248 18.1821 7.32812C18.1821 9.42204 16.9427 11.1691 15.2964 11.5703V15.9854C15.2964 16.3837 14.9731 16.707 14.5747 16.707C14.1763 16.707 13.853 16.3838 13.853 15.9854V11.5703C12.2065 11.1692 10.9673 9.42219 10.9673 7.32812C10.9675 4.93773 12.5826 3 14.5747 3Z" fill="#FE7D13"/>
</svg>
