<svg width="22" height="22" viewBox="0 0 22 22" fill="none" xmlns="http://www.w3.org/2000/svg">
<circle cx="11" cy="11" r="10.5" fill="#3CB21F" stroke="white"/>
<path d="M12.9676 5.56693C13.5019 5.03269 14.368 5.03269 14.9023 5.56693C15.4365 6.10117 15.4365 6.96734 14.9023 7.50158L9.78233 12.6215C9.65405 12.7498 9.48007 12.8218 9.29866 12.8218L7.64734 12.8218L7.64734 11.1705C7.64734 10.9891 7.71941 10.8151 7.84768 10.6869L12.9676 5.56693Z" fill="white"/>
<path d="M5.59998 14.3193C5.59998 14.0211 5.84174 13.7793 6.13998 13.7793H15.86C16.1582 13.7793 16.4 14.0211 16.4 14.3193C16.4 14.6175 16.1582 14.8593 15.86 14.8593H6.13998C5.84174 14.8593 5.59998 14.6175 5.59998 14.3193Z" fill="white"/>
</svg>
