<svg width="112" height="40" viewBox="0 0 112 40" fill="none" xmlns="http://www.w3.org/2000/svg">
<path d="M76.5386 17.791V25.6978" stroke="#96D2FF" stroke-width="2.96506" stroke-linecap="round"/>
<path d="M94.7028 16.0156C95.5222 16.0156 96.2626 16.1234 96.9239 16.3391C97.5995 16.5403 98.1674 16.8063 98.6274 17.137C98.9149 17.3382 99.1378 17.561 99.2959 17.8054C99.4684 18.0498 99.5547 18.3661 99.5547 18.7543V26.3017C99.5547 27.0636 99.4109 27.7177 99.1234 28.264C98.8359 28.8247 98.4405 29.2847 97.9374 29.6441C97.4486 30.0179 96.8664 30.291 96.1907 30.4635C95.5294 30.6361 94.8178 30.7223 94.0558 30.7223C92.7476 30.7223 91.7197 30.5426 90.9722 30.1832C90.2246 29.8382 89.8509 29.2703 89.8509 28.4797C89.8509 28.149 89.9155 27.8543 90.0449 27.5955C90.273 27.2077 90.77 27.1818 91.1856 27.3542C91.4182 27.4508 91.6634 27.5384 91.921 27.6171C92.4529 27.7752 92.9992 27.8543 93.5599 27.8543C94.3362 27.8543 94.9543 27.7249 95.4144 27.4661C95.8744 27.2074 96.1044 26.7905 96.1044 26.2154C96.1044 26.0528 95.9368 25.9427 95.7827 25.9945C95.2591 26.1705 94.6476 26.2586 93.948 26.2586C93.3011 26.2586 92.6829 26.1651 92.0935 25.9782C91.5185 25.777 91.0081 25.4751 90.5625 25.0725C90.1312 24.6556 89.779 24.1237 89.5058 23.4768C89.2471 22.8299 89.1177 22.0608 89.1177 21.1694C89.1177 20.2925 89.2542 19.5306 89.5274 18.8836C89.8149 18.2367 90.2031 17.7048 90.6919 17.2879C91.195 16.8566 91.7844 16.5403 92.4601 16.3391C93.1502 16.1234 93.8977 16.0156 94.7028 16.0156ZM96.0397 19.628C96.0397 19.3277 95.8756 19.0524 95.5869 18.9699C95.4 18.9124 95.1628 18.8836 94.8753 18.8836C94.1709 18.8836 93.6389 19.0849 93.2795 19.4874C92.9345 19.8756 92.762 20.4363 92.762 21.1694C92.762 22.0032 92.9345 22.607 93.2795 22.9808C93.6389 23.3402 94.0918 23.5199 94.6381 23.5199C95.5782 23.5199 96.0397 22.562 96.0397 21.6219V19.628Z" fill="#96D2FF"/>
<path d="M74.5986 13.4281C74.5986 12.8818 74.7783 12.4217 75.1377 12.048C75.5115 11.6742 76.0003 11.4873 76.6041 11.4873C77.2079 11.4873 77.6895 11.6742 78.0489 12.048C78.4227 12.4217 78.6095 12.8818 78.6095 13.4281C78.6095 13.9744 78.4227 14.4344 78.0489 14.8082C77.6895 15.1819 77.2079 15.3688 76.6041 15.3688C76.0003 15.3688 75.5115 15.1819 75.1377 14.8082C74.7783 14.4344 74.5986 13.9744 74.5986 13.4281Z" fill="#96D2FF"/>
<path d="M80.4917 25.6978V20.6866C80.4917 19.8412 81.1386 17.791 83.7263 17.791C86.314 17.791 86.9609 19.9406 86.9609 20.6866V25.6978" stroke="#96D2FF" stroke-width="2.96506" stroke-linecap="round"/>
<path d="M39.0176 17.791V25.6978" stroke="#96D2FF" stroke-width="2.96506" stroke-linecap="round"/>
<path d="M57.1818 16.0156C58.0012 16.0156 58.7416 16.1234 59.4029 16.3391C60.0785 16.5403 60.6464 16.8063 61.1064 17.137C61.3939 17.3382 61.6168 17.561 61.7749 17.8054C61.9474 18.0498 62.0337 18.3661 62.0337 18.7543V26.3017C62.0337 27.0636 61.8899 27.7177 61.6024 28.264C61.3149 28.8247 60.9195 29.2847 60.4164 29.6441C59.9276 30.0179 59.3454 30.291 58.6697 30.4635C58.0084 30.6361 57.2968 30.7223 56.5348 30.7223C55.2266 30.7223 54.1987 30.5426 53.4512 30.1832C52.7036 29.8382 52.3299 29.2703 52.3299 28.4797C52.3299 28.149 52.3945 27.8543 52.5239 27.5955C52.752 27.2077 53.249 27.1818 53.6646 27.3542C53.8972 27.4508 54.1424 27.5384 54.4 27.6171C54.9319 27.7752 55.4782 27.8543 56.0389 27.8543C56.8152 27.8543 57.4334 27.7249 57.8934 27.4661C58.3534 27.2074 58.5834 26.7905 58.5834 26.2154C58.5834 26.0528 58.4158 25.9427 58.2617 25.9945C57.7381 26.1705 57.1266 26.2586 56.427 26.2586C55.7801 26.2586 55.1619 26.1651 54.5725 25.9782C53.9975 25.777 53.4871 25.4751 53.0415 25.0725C52.6102 24.6556 52.258 24.1237 51.9848 23.4768C51.7261 22.8299 51.5967 22.0608 51.5967 21.1694C51.5967 20.2925 51.7333 19.5306 52.0064 18.8836C52.2939 18.2367 52.6821 17.7048 53.1709 17.2879C53.674 16.8566 54.2634 16.5403 54.9391 16.3391C55.6292 16.1234 56.3767 16.0156 57.1818 16.0156ZM58.5187 19.628C58.5187 19.3277 58.3546 19.0524 58.0659 18.9699C57.879 18.9124 57.6418 18.8836 57.3543 18.8836C56.6499 18.8836 56.1179 19.0849 55.7585 19.4874C55.4135 19.8756 55.241 20.4363 55.241 21.1694C55.241 22.0032 55.4135 22.607 55.7585 22.9808C56.1179 23.3402 56.5708 23.5199 57.1171 23.5199C58.0572 23.5199 58.5187 22.562 58.5187 21.6219V19.628Z" fill="#96D2FF"/>
<path d="M37.0776 13.4281C37.0776 12.8818 37.2573 12.4217 37.6167 12.048C37.9905 11.6742 38.4793 11.4873 39.0831 11.4873C39.6869 11.4873 40.1685 11.6742 40.5279 12.048C40.9017 12.4217 41.0886 12.8818 41.0886 13.4281C41.0886 13.9744 40.9017 14.4344 40.5279 14.8082C40.1685 15.1819 39.6869 15.3688 39.0831 15.3688C38.4793 15.3688 37.9905 15.1819 37.6167 14.8082C37.2573 14.4344 37.0776 13.9744 37.0776 13.4281Z" fill="#96D2FF"/>
<path d="M42.9712 25.6978V20.6866C42.9712 19.8412 43.6181 17.791 46.2058 17.791C48.7935 17.791 49.4404 19.9406 49.4404 20.6866V25.6978" stroke="#96D2FF" stroke-width="2.96506" stroke-linecap="round"/>
<path d="M61.9299 26.0571C62.0413 26.0875 66.0771 26.6398 67.964 25.2921C69.9796 23.8524 70.7814 21.7721 71.1985 20.0807C71.6414 18.2851 71.8275 16.3967 71.6758 15.3183C71.5097 14.1377 71.1985 10.8264 68.7108 10.8264C66.5405 10.8264 66.122 13.1706 65.9872 13.7912C65.5381 15.8583 65.5553 18.2007 66.5405 21.0486C67.3771 23.4667 69.2771 24.5957 70.5712 25.201C72.814 26.25 75.0481 26.25 76.3958 25.6977" stroke="#96D2FF" stroke-width="3.23461" stroke-linecap="round"/>
<path d="M14.4844 25.6921C14.62 22.8931 17.4359 16.2907 21.8499 15.9924C26.317 15.6906 27.5249 25.6921 23.2043 25.4593C21.249 25.3539 19.1394 21.6548 25.5326 16.3547C27.048 15.0983 28.5512 14.4228 30.0002 14.9057C33.3619 16.0262 32.2943 22.5127 31.2076 25.6921" stroke="#0091FF" stroke-width="3.13938" stroke-linecap="round"/>
<path d="M37.0775 15.929C34.8845 17.0724 32.0164 20.5382 31.3889 25.6978" stroke="#0091FF" stroke-width="3.13938" stroke-linecap="round"/>
<path d="M11.1639 8.44629C12.4116 10.7816 14.4844 16.2847 14.4844 25.6525" stroke="#0091FF" stroke-width="3.13938" stroke-linecap="round"/>
</svg>
