<svg width="112" height="40" viewBox="0 0 112 40" fill="none" xmlns="http://www.w3.org/2000/svg">
<path d="M76.5389 17.7907V25.6975" stroke="#A8D8FF" stroke-width="2.96506" stroke-linecap="round"/>
<path d="M94.7029 16.0155C95.5223 16.0155 96.2627 16.1233 96.924 16.339C97.5997 16.5402 98.1675 16.8062 98.6275 17.1368C98.9151 17.3381 99.1379 17.5609 99.296 17.8053C99.4685 18.0497 99.5548 18.366 99.5548 18.7542V26.3016C99.5548 27.0635 99.411 27.7176 99.1235 28.2639C98.836 28.8246 98.4407 29.2846 97.9375 29.644C97.4487 30.0178 96.8665 30.2909 96.1908 30.4634C95.5295 30.636 94.8179 30.7222 94.056 30.7222C92.7477 30.7222 91.7199 30.5425 90.9723 30.1831C90.2248 29.8381 89.851 29.2702 89.851 28.4795C89.851 28.1489 89.9157 27.8542 90.0451 27.5954C90.2732 27.2076 90.7701 27.1817 91.1857 27.3541C91.4184 27.4506 91.6635 27.5383 91.9211 27.617C92.453 27.7751 92.9993 27.8542 93.56 27.8542C94.3363 27.8542 94.9545 27.7248 95.4145 27.466C95.8745 27.2073 96.1046 26.7904 96.1046 26.2153C96.1046 26.0527 95.9369 25.9426 95.7828 25.9944C95.2593 26.1704 94.6477 26.2584 93.9481 26.2584C93.3012 26.2584 92.6831 26.165 92.0936 25.9781C91.5186 25.7769 91.0082 25.475 90.5626 25.0724C90.1313 24.6555 89.7791 24.1236 89.5059 23.4767C89.2472 22.8298 89.1178 22.0606 89.1178 21.1693C89.1178 20.2924 89.2544 19.5305 89.5275 18.8835C89.815 18.2366 90.2032 17.7047 90.692 17.2878C91.1951 16.8565 91.7846 16.5402 92.4602 16.339C93.1503 16.1233 93.8978 16.0155 94.7029 16.0155ZM96.0399 19.6279C96.0399 19.3276 95.8758 19.0523 95.587 18.9698C95.4001 18.9123 95.1629 18.8835 94.8754 18.8835C94.171 18.8835 93.6391 19.0848 93.2797 19.4873C92.9346 19.8755 92.7621 20.4362 92.7621 21.1693C92.7621 22.0031 92.9346 22.6069 93.2797 22.9807C93.6391 23.3401 94.0919 23.5198 94.6382 23.5198C95.5783 23.5198 96.0399 22.5619 96.0399 21.6218V19.6279Z" fill="#A8D8FF"/>
<path d="M74.599 13.428C74.599 12.8817 74.7787 12.4216 75.1381 12.0479C75.5119 11.6741 76.0007 11.4872 76.6045 11.4872C77.2083 11.4872 77.6899 11.6741 78.0493 12.0479C78.4231 12.4216 78.6099 12.8817 78.6099 13.428C78.6099 13.9743 78.4231 14.4343 78.0493 14.8081C77.6899 15.1818 77.2083 15.3687 76.6045 15.3687C76.0007 15.3687 75.5119 15.1818 75.1381 14.8081C74.7787 14.4343 74.599 13.9743 74.599 13.428Z" fill="#A8D8FF"/>
<path d="M80.492 25.6975V20.6863C80.492 19.8409 81.1389 17.7907 83.7266 17.7907C86.3143 17.7907 86.9612 19.9403 86.9612 20.6863V25.6975" stroke="#A8D8FF" stroke-width="2.96506" stroke-linecap="round"/>
<path d="M39.0178 17.7907V25.6975" stroke="#A8D8FF" stroke-width="2.96506" stroke-linecap="round"/>
<path d="M57.1822 16.0155C58.0016 16.0155 58.742 16.1233 59.4033 16.339C60.0789 16.5402 60.6468 16.8062 61.1068 17.1368C61.3943 17.3381 61.6172 17.5609 61.7753 17.8053C61.9478 18.0497 62.0341 18.366 62.0341 18.7542V26.3016C62.0341 27.0635 61.8903 27.7176 61.6028 28.2639C61.3153 28.8246 60.9199 29.2846 60.4168 29.644C59.928 30.0178 59.3458 30.2909 58.6701 30.4634C58.0088 30.636 57.2972 30.7222 56.5352 30.7222C55.227 30.7222 54.1991 30.5425 53.4516 30.1831C52.704 29.8381 52.3303 29.2702 52.3303 28.4795C52.3303 28.1489 52.3949 27.8542 52.5243 27.5954C52.7524 27.2076 53.2494 27.1817 53.665 27.3541C53.8976 27.4506 54.1428 27.5383 54.4004 27.617C54.9323 27.7751 55.4786 27.8542 56.0393 27.8542C56.8156 27.8542 57.4337 27.7248 57.8938 27.466C58.3538 27.2073 58.5838 26.7904 58.5838 26.2153C58.5838 26.0527 58.4162 25.9426 58.2621 25.9944C57.7385 26.1704 57.127 26.2584 56.4274 26.2584C55.7805 26.2584 55.1623 26.165 54.5729 25.9781C53.9979 25.7769 53.4875 25.475 53.0419 25.0724C52.6106 24.6555 52.2584 24.1236 51.9852 23.4767C51.7265 22.8298 51.5971 22.0606 51.5971 21.1693C51.5971 20.2924 51.7336 19.5305 52.0068 18.8835C52.2943 18.2366 52.6825 17.7047 53.1713 17.2878C53.6744 16.8565 54.2638 16.5402 54.9395 16.339C55.6296 16.1233 56.3771 16.0155 57.1822 16.0155ZM58.5191 19.6279C58.5191 19.3276 58.355 19.0523 58.0663 18.9698C57.8794 18.9123 57.6422 18.8835 57.3547 18.8835C56.6503 18.8835 56.1183 19.0848 55.7589 19.4873C55.4139 19.8755 55.2414 20.4362 55.2414 21.1693C55.2414 22.0031 55.4139 22.6069 55.7589 22.9807C56.1183 23.3401 56.5712 23.5198 57.1175 23.5198C58.0576 23.5198 58.5191 22.5619 58.5191 21.6218V19.6279Z" fill="#A8D8FF"/>
<path d="M37.0779 13.428C37.0779 12.8817 37.2576 12.4216 37.617 12.0479C37.9908 11.6741 38.4796 11.4872 39.0834 11.4872C39.6872 11.4872 40.1688 11.6741 40.5282 12.0479C40.902 12.4216 41.0889 12.8817 41.0889 13.428C41.0889 13.9743 40.902 14.4343 40.5282 14.8081C40.1688 15.1818 39.6872 15.3687 39.0834 15.3687C38.4796 15.3687 37.9908 15.1818 37.617 14.8081C37.2576 14.4343 37.0779 13.9743 37.0779 13.428Z" fill="#A8D8FF"/>
<path d="M42.9717 25.6975V20.6863C42.9717 19.8409 43.6186 17.7907 46.2063 17.7907C48.794 17.7907 49.4409 19.9403 49.4409 20.6863V25.6975" stroke="#A8D8FF" stroke-width="2.96506" stroke-linecap="round"/>
<path d="M61.9301 26.0568C62.0415 26.0872 66.0773 26.6395 67.9642 25.2918C69.9798 23.8521 70.7816 21.7717 71.1988 20.0804C71.6417 18.2848 71.8277 16.3964 71.676 15.318C71.5099 14.1374 71.1987 10.8261 68.711 10.8261C66.5407 10.8261 66.1223 13.1703 65.9874 13.7909C65.5383 15.858 65.5555 18.2004 66.5407 21.0483C67.3773 23.4664 69.2773 24.5954 70.5714 25.2007C72.8142 26.2497 75.0483 26.2497 76.396 25.6974" stroke="#A8D8FF" stroke-width="3.23461" stroke-linecap="round"/>
<path d="M14.4848 25.6924C14.6204 22.8934 17.4363 16.291 21.8503 15.9927C26.3174 15.6908 27.5253 25.6924 23.2048 25.4596C21.2494 25.3542 19.1398 21.6551 25.533 16.355C27.0484 15.0986 28.5517 14.423 30.0006 14.906C33.3623 16.0265 32.2948 22.513 31.2081 25.6924" stroke="#04A1FE" stroke-width="3.13938" stroke-linecap="round"/>
<path d="M37.0779 15.9285C34.885 17.0719 32.0168 20.5377 31.3893 25.6973" stroke="#04A1FE" stroke-width="3.13938" stroke-linecap="round"/>
<path d="M11.1643 8.44618C12.412 10.7815 14.4848 16.2846 14.4848 25.6524" stroke="#04A1FE" stroke-width="3.13938" stroke-linecap="round"/>
</svg>
