<svg width="601" height="220" viewBox="0 0 601 220" fill="none" xmlns="http://www.w3.org/2000/svg">
<path d="M414.796 99V143" stroke="#A8D8FF" stroke-width="16.5" stroke-linecap="round"/>
<path d="M515.876 89.123C520.436 89.123 524.556 89.723 528.236 90.923C531.996 92.043 535.156 93.523 537.716 95.363C539.316 96.483 540.556 97.723 541.436 99.083C542.396 100.443 542.876 102.203 542.876 104.363V146.363C542.876 150.603 542.076 154.243 540.476 157.283C538.876 160.403 536.676 162.963 533.876 164.963C531.156 167.043 527.916 168.563 524.156 169.523C520.476 170.483 516.516 170.963 512.276 170.963C504.996 170.963 499.276 169.963 495.116 167.963C490.956 166.043 488.876 162.883 488.876 158.483C488.876 156.643 489.236 155.003 489.956 153.563C491.225 151.405 493.991 151.261 496.303 152.22C497.598 152.757 498.962 153.245 500.396 153.683C503.356 154.563 506.396 155.003 509.516 155.003C513.836 155.003 517.276 154.283 519.836 152.843C522.396 151.403 523.676 149.083 523.676 145.883C523.676 144.978 522.743 144.365 521.885 144.654C518.972 145.633 515.569 146.123 511.676 146.123C508.076 146.123 504.636 145.603 501.356 144.563C498.156 143.443 495.316 141.763 492.836 139.523C490.436 137.203 488.476 134.243 486.956 130.643C485.516 127.043 484.796 122.763 484.796 117.803C484.796 112.923 485.556 108.683 487.076 105.083C488.676 101.483 490.836 98.5231 493.556 96.203C496.356 93.803 499.636 92.043 503.396 90.923C507.236 89.723 511.396 89.123 515.876 89.123ZM523.316 109.226C523.316 107.554 522.403 106.022 520.796 105.563C519.756 105.243 518.436 105.083 516.836 105.083C512.916 105.083 509.956 106.203 507.956 108.443C506.036 110.603 505.076 113.723 505.076 117.803C505.076 122.443 506.036 125.803 507.956 127.883C509.956 129.883 512.476 130.883 515.516 130.883C520.747 130.883 523.316 125.552 523.316 120.321V109.226Z" fill="#A8D8FF"/>
<path d="M404 74.7229C404 71.6829 405 69.1228 407 67.0428C409.08 64.9628 411.8 63.9229 415.16 63.9229C418.52 63.9229 421.2 64.9628 423.2 67.0428C425.28 69.1228 426.32 71.6829 426.32 74.7229C426.32 77.7629 425.28 80.3229 423.2 82.4029C421.2 84.4829 418.52 85.5229 415.16 85.5229C411.8 85.5229 409.08 84.4829 407 82.4029C405 80.3229 404 77.7629 404 74.7229Z" fill="#A8D8FF"/>
<path d="M436.796 143V115.113C436.796 110.409 440.396 99 454.796 99C469.196 99 472.796 110.962 472.796 115.113V143" stroke="#A8D8FF" stroke-width="16.5" stroke-linecap="round"/>
<path d="M206 99V143" stroke="#A8D8FF" stroke-width="16.5" stroke-linecap="round"/>
<path d="M307.08 89.123C311.64 89.123 315.76 89.723 319.44 90.923C323.2 92.043 326.36 93.523 328.92 95.363C330.52 96.483 331.76 97.723 332.64 99.083C333.6 100.443 334.08 102.203 334.08 104.363V146.363C334.08 150.603 333.28 154.243 331.68 157.283C330.08 160.403 327.88 162.963 325.08 164.963C322.36 167.043 319.12 168.563 315.36 169.523C311.68 170.483 307.72 170.963 303.48 170.963C296.2 170.963 290.48 169.963 286.32 167.963C282.16 166.043 280.08 162.883 280.08 158.483C280.08 156.643 280.44 155.003 281.16 153.563C282.429 151.405 285.195 151.261 287.507 152.22C288.802 152.757 290.166 153.245 291.6 153.683C294.56 154.563 297.6 155.003 300.72 155.003C305.04 155.003 308.48 154.283 311.04 152.843C313.6 151.403 314.88 149.083 314.88 145.883C314.88 144.978 313.947 144.365 313.09 144.654C310.176 145.633 306.773 146.123 302.88 146.123C299.28 146.123 295.84 145.603 292.56 144.563C289.36 143.443 286.52 141.763 284.04 139.523C281.64 137.203 279.68 134.243 278.16 130.643C276.72 127.043 276 122.763 276 117.803C276 112.923 276.76 108.683 278.28 105.083C279.88 101.483 282.04 98.5231 284.76 96.203C287.56 93.803 290.84 92.043 294.6 90.923C298.44 89.723 302.6 89.123 307.08 89.123ZM314.52 109.226C314.52 107.554 313.607 106.022 312 105.563C310.96 105.243 309.64 105.083 308.04 105.083C304.12 105.083 301.16 106.203 299.16 108.443C297.24 110.603 296.28 113.723 296.28 117.803C296.28 122.443 297.24 125.803 299.16 127.883C301.16 129.883 303.68 130.883 306.72 130.883C311.951 130.883 314.52 125.552 314.52 120.321V109.226Z" fill="#A8D8FF"/>
<path d="M195.204 74.7229C195.204 71.6829 196.204 69.1228 198.204 67.0428C200.284 64.9628 203.004 63.9229 206.364 63.9229C209.724 63.9229 212.404 64.9628 214.404 67.0428C216.484 69.1228 217.524 71.6829 217.524 74.7229C217.524 77.7629 216.484 80.3229 214.404 82.4029C212.404 84.4829 209.724 85.5229 206.364 85.5229C203.004 85.5229 200.284 84.4829 198.204 82.4029C196.204 80.3229 195.204 77.7629 195.204 74.7229Z" fill="#A8D8FF"/>
<path d="M228 143V115.113C228 110.409 231.6 99 246 99C260.4 99 264 110.962 264 115.113V143" stroke="#A8D8FF" stroke-width="16.5" stroke-linecap="round"/>
<path d="M333.5 145C334.12 145.169 356.579 148.243 367.079 140.743C378.295 132.731 382.757 121.154 385.078 111.742C387.543 101.75 388.578 91.2415 387.734 85.2404C386.81 78.6704 385.078 60.2441 371.235 60.2439C359.157 60.2438 356.828 73.2891 356.078 76.7424C353.579 88.2454 353.675 101.281 359.157 117.128C363.813 130.585 374.386 136.867 381.587 140.236C394.068 146.074 406.5 146.074 414 143" stroke="#A8D8FF" stroke-width="18" stroke-linecap="round"/>
<path d="M69.478 142.971C70.2326 127.395 85.9026 90.6543 110.466 88.9944C135.324 87.3146 142.046 142.971 118.003 141.676C107.122 141.089 95.3823 120.505 130.959 91.0103C139.392 84.019 147.757 80.2596 155.821 82.9471C174.528 89.1826 168.587 125.279 162.54 142.971" stroke="white" stroke-width="17.4701" stroke-linecap="round"/>
<path d="M195.203 88.6373C183 95 167.039 114.287 163.547 142.999" stroke="white" stroke-width="17.4701" stroke-linecap="round"/>
<path d="M51 47C57.9433 59.9954 69.478 90.6195 69.478 142.75" stroke="white" stroke-width="17.4701" stroke-linecap="round"/>
</svg>
