<svg width="24" height="24" viewBox="0 0 24 24" fill="none" xmlns="http://www.w3.org/2000/svg">
<path d="M16.7434 11.2696C16.6573 11.2283 16.5698 11.1886 16.4811 11.1505C16.3268 8.30606 14.7725 6.6776 12.1627 6.66094C12.1509 6.66086 12.1391 6.66086 12.1273 6.66086C10.5663 6.66086 9.26802 7.32718 8.46895 8.53966L9.90426 9.52425C10.5012 8.61857 11.438 8.4255 12.128 8.4255C12.1359 8.4255 12.1439 8.4255 12.1518 8.42557C13.0111 8.43105 13.6596 8.6809 14.0793 9.16813C14.3847 9.52284 14.5889 10.013 14.6901 10.6316C13.9282 10.5022 13.1043 10.4623 12.2234 10.5128C9.74215 10.6558 8.14698 12.1029 8.25411 14.1137C8.30848 15.1337 8.81663 16.0112 9.68489 16.5845C10.419 17.0691 11.3645 17.306 12.3471 17.2524C13.6448 17.1812 14.6628 16.6861 15.373 15.7808C15.9124 15.0933 16.2535 14.2024 16.4042 13.0798C17.0226 13.453 17.4809 13.9442 17.7341 14.5346C18.1645 15.5382 18.1896 17.1875 16.8438 18.5321C15.6648 19.71 14.2475 20.2196 12.1056 20.2353C9.72959 20.2177 7.93268 19.4557 6.76437 17.9705C5.67035 16.5798 5.10496 14.571 5.08386 12C5.10496 9.42894 5.67035 7.42017 6.76437 6.02945C7.93268 4.54426 9.72956 3.78229 12.1055 3.76464C14.4987 3.78243 16.327 4.54806 17.54 6.04042C18.1348 6.77225 18.5832 7.69258 18.8788 8.76566L20.5608 8.3169C20.2025 6.99606 19.6386 5.85789 18.8713 4.91396C17.3162 3.0007 15.0419 2.02033 12.1114 2H12.0997C9.17516 2.02026 6.92625 3.00435 5.41544 4.92493C4.07102 6.634 3.37753 9.01205 3.35423 11.993L3.35416 12L3.35423 12.007C3.37753 14.9879 4.07102 17.366 5.41544 19.0751C6.92625 20.9956 9.17516 21.9798 12.0997 22H12.1114C14.7114 21.982 16.5442 21.3013 18.0539 19.7928C20.0293 17.8194 19.9698 15.3457 19.3187 13.8272C18.8517 12.7382 17.9611 11.8538 16.7434 11.2696ZM12.2542 15.4903C11.1667 15.5516 10.0369 15.0634 9.9812 14.0179C9.93991 13.2427 10.5329 12.3777 12.3209 12.2747C12.5257 12.2629 12.7267 12.2571 12.9241 12.2571C13.5735 12.2571 14.1811 12.3202 14.7335 12.4409C14.5275 15.0141 13.3189 15.4319 12.2542 15.4903Z" fill="#B6BBC9"/>
</svg>
