<svg width="60" height="60" viewBox="0 0 60 60" fill="none" xmlns="http://www.w3.org/2000/svg">
<g clip-path="url(#clip0_500_9984)">
<g filter="url(#filter0_d_500_9984)">
<mask id="path-1-outside-1_500_9984" maskUnits="userSpaceOnUse" x="6.82764" y="2.79102" width="47" height="55" fill="black">
<rect fill="white" x="6.82764" y="2.79102" width="47" height="55"/>
<path d="M29.9995 4.79102C41.6925 4.79102 51.1722 14.27 51.1724 25.9629C51.1724 32.7839 47.9461 38.8515 42.937 42.7236H42.9614C42.8104 42.8303 42.6525 42.9435 42.4897 43.0605C42.4123 43.1172 42.3346 43.1738 42.2563 43.2295C38.1584 46.2 30.9348 52.0389 30.0142 55.207V55.208C29.1266 52.154 22.3816 46.6183 18.2261 43.5625C12.5584 39.7633 8.82764 33.2986 8.82764 25.9629C8.82782 14.2701 18.3067 4.7912 29.9995 4.79102ZM30.0005 18.5645C25.4044 18.5647 21.6782 22.2906 21.6782 26.8867C21.6784 31.4827 25.4045 35.2087 30.0005 35.209C34.5967 35.209 38.3236 31.4829 38.3237 26.8867C38.3237 22.2904 34.5968 18.5645 30.0005 18.5645Z"/>
</mask>
<path d="M29.9995 4.79102C41.6925 4.79102 51.1722 14.27 51.1724 25.9629C51.1724 32.7839 47.9461 38.8515 42.937 42.7236H42.9614C42.8104 42.8303 42.6525 42.9435 42.4897 43.0605C42.4123 43.1172 42.3346 43.1738 42.2563 43.2295C38.1584 46.2 30.9348 52.0389 30.0142 55.207V55.208C29.1266 52.154 22.3816 46.6183 18.2261 43.5625C12.5584 39.7633 8.82764 33.2986 8.82764 25.9629C8.82782 14.2701 18.3067 4.7912 29.9995 4.79102ZM30.0005 18.5645C25.4044 18.5647 21.6782 22.2906 21.6782 26.8867C21.6784 31.4827 25.4045 35.2087 30.0005 35.209C34.5967 35.209 38.3236 31.4829 38.3237 26.8867C38.3237 22.2904 34.5968 18.5645 30.0005 18.5645Z" fill="#0091FF"/>
<path d="M29.9995 4.79102V2.79102H29.9995L29.9995 4.79102ZM51.1724 25.9629H53.1724V25.9629L51.1724 25.9629ZM42.937 42.7236L41.7138 41.1413C41.037 41.6645 40.7679 42.5603 41.0443 43.3699C41.3207 44.1795 42.0815 44.7236 42.937 44.7236V42.7236ZM42.9614 42.7236L44.1154 44.3572C44.8271 43.8544 45.1314 42.9488 44.8676 42.1183C44.6039 41.2878 43.8328 40.7236 42.9614 40.7236V42.7236ZM42.4897 43.0605L41.3221 41.4368C41.3176 41.44 41.3131 41.4433 41.3086 41.4465L42.4897 43.0605ZM42.2563 43.2295L41.0973 41.5996C41.0923 41.6031 41.0874 41.6066 41.0826 41.6102L42.2563 43.2295ZM30.0142 55.207L28.0936 54.6489C28.0409 54.8303 28.0142 55.0182 28.0142 55.207H30.0142ZM30.0142 55.208L28.0936 55.7662C28.3715 56.7223 29.3103 57.3284 30.296 57.188C31.2818 57.0477 32.0142 56.2037 32.0142 55.208H30.0142ZM18.2261 43.5625L19.4109 41.9512C19.3875 41.934 19.3638 41.9174 19.3397 41.9012L18.2261 43.5625ZM8.82764 25.9629L6.82764 25.9629V25.9629H8.82764ZM30.0005 18.5645V16.5645H30.0004L30.0005 18.5645ZM21.6782 26.8867H19.6782V26.8868L21.6782 26.8867ZM30.0005 35.209L30.0004 37.209H30.0005V35.209ZM38.3237 26.8867L40.3237 26.8868V26.8867H38.3237ZM29.9995 4.79102V6.79102C40.588 6.79102 49.1722 15.3746 49.1724 25.9629L51.1724 25.9629L53.1724 25.9629C53.1722 13.1653 42.797 2.79102 29.9995 2.79102V4.79102ZM51.1724 25.9629H49.1724C49.1724 32.1383 46.2542 37.6315 41.7138 41.1413L42.937 42.7236L44.1602 44.306C49.638 40.0715 53.1724 33.4296 53.1724 25.9629H51.1724ZM42.937 42.7236V44.7236H42.9614V42.7236V40.7236H42.937V42.7236ZM42.9614 42.7236L41.8075 41.0901C41.6492 41.2019 41.4858 41.3191 41.3221 41.4368L42.4897 43.0605L43.6574 44.6843C43.8193 44.5679 43.9715 44.4588 44.1154 44.3572L42.9614 42.7236ZM42.4897 43.0605L41.3086 41.4465C41.2324 41.5023 41.1639 41.5522 41.0973 41.5996L42.2563 43.2295L43.4154 44.8594C43.5054 44.7954 43.5922 44.7321 43.6708 44.6745L42.4897 43.0605ZM42.2563 43.2295L41.0826 41.6102C38.9938 43.1242 36.0996 45.375 33.5934 47.6688C32.3419 48.8143 31.1547 50 30.206 51.1324C29.2991 52.2149 28.4453 53.4387 28.0936 54.6489L30.0142 55.207L31.9347 55.7651C32.0433 55.3913 32.4377 54.6972 33.2722 53.7011C34.065 52.7548 35.1124 51.7011 36.2941 50.6195C38.6544 48.4591 41.4209 46.3052 43.4301 44.8488L42.2563 43.2295ZM30.0142 55.207H28.0142V55.208H30.0142H32.0142V55.207H30.0142ZM30.0142 55.208L31.9347 54.6499C31.5944 53.479 30.7863 52.3007 29.9248 51.2567C29.0251 50.1665 27.899 49.0258 26.7053 47.9192C24.315 45.7033 21.5258 43.5064 19.4109 41.9512L18.2261 43.5625L17.0412 45.1738C19.0819 46.6744 21.7429 48.7732 23.9859 50.8526C25.1089 51.8937 26.0952 52.9006 26.8396 53.8027C27.6223 54.7511 27.9901 55.4101 28.0936 55.7662L30.0142 55.208ZM18.2261 43.5625L19.3397 41.9012C14.2024 38.4576 10.8276 32.6038 10.8276 25.9629H8.82764H6.82764C6.82764 33.9934 10.9145 41.0691 17.1125 45.2238L18.2261 43.5625ZM8.82764 25.9629L10.8276 25.9629C10.8278 15.3746 19.4113 6.79118 29.9995 6.79102L29.9995 4.79102L29.9995 2.79102C17.2021 2.79122 6.82784 13.1655 6.82764 25.9629L8.82764 25.9629ZM30.0005 18.5645L30.0004 16.5645C24.2999 16.5647 19.6782 21.1859 19.6782 26.8867H21.6782H23.6782C23.6782 23.3952 26.5089 20.5646 30.0006 20.5645L30.0005 18.5645ZM21.6782 26.8867L19.6782 26.8868C19.6784 32.5873 24.2999 37.2087 30.0004 37.209L30.0005 35.209L30.0006 33.209C26.5091 33.2088 23.6784 30.3781 23.6782 26.8866L21.6782 26.8867ZM30.0005 35.209V37.209C35.701 37.209 40.3235 32.5877 40.3237 26.8868L38.3237 26.8867L36.3237 26.8866C36.3236 30.3781 33.4923 33.209 30.0005 33.209V35.209ZM38.3237 26.8867H40.3237C40.3237 21.1855 35.7011 16.5645 30.0005 16.5645V18.5645V20.5645C33.4925 20.5645 36.3237 23.3953 36.3237 26.8867H38.3237Z" fill="white" mask="url(#path-1-outside-1_500_9984)"/>
</g>
</g>
<defs>
<filter id="filter0_d_500_9984" x="-1.17236" y="-5.20898" width="62.3447" height="70.417" filterUnits="userSpaceOnUse" color-interpolation-filters="sRGB">
<feFlood flood-opacity="0" result="BackgroundImageFix"/>
<feColorMatrix in="SourceAlpha" type="matrix" values="0 0 0 0 0 0 0 0 0 0 0 0 0 0 0 0 0 0 127 0" result="hardAlpha"/>
<feOffset/>
<feGaussianBlur stdDeviation="4"/>
<feComposite in2="hardAlpha" operator="out"/>
<feColorMatrix type="matrix" values="0 0 0 0 0 0 0 0 0 0 0 0 0 0 0 0 0 0 0.12 0"/>
<feBlend mode="normal" in2="BackgroundImageFix" result="effect1_dropShadow_500_9984"/>
<feBlend mode="normal" in="SourceGraphic" in2="effect1_dropShadow_500_9984" result="shape"/>
</filter>
<clipPath id="clip0_500_9984">
<rect width="60" height="60" fill="white"/>
</clipPath>
</defs>
</svg>
