<svg width="20" height="20" viewBox="0 0 20 20" fill="none" xmlns="http://www.w3.org/2000/svg">
<path d="M17.2192 15.6442C17.2192 15.6442 16.2536 16.5926 16.017 16.8706C15.6316 17.2819 15.1774 17.4762 14.5821 17.4762C14.5248 17.4762 14.4637 17.4762 14.4065 17.4724C13.273 17.4 12.2197 16.9582 11.4297 16.5811C9.2696 15.5376 7.37284 14.056 5.79667 12.1784C4.49527 10.613 3.62513 9.16576 3.04885 7.61185C2.69392 6.6635 2.56416 5.92463 2.62141 5.22765C2.65957 4.78204 2.83131 4.41261 3.14807 4.09649L4.44947 2.79776C4.63647 2.62256 4.83493 2.52734 5.02957 2.52734C5.27 2.52734 5.46464 2.67207 5.58676 2.79395C5.59058 2.79776 5.5944 2.80156 5.59821 2.80537C5.83101 3.02246 6.05236 3.24717 6.28517 3.48712C6.40347 3.60899 6.5256 3.73087 6.64773 3.85655L7.68961 4.8963C8.09415 5.30002 8.09415 5.67326 7.68961 6.07698C7.57893 6.18743 7.47207 6.29787 7.36139 6.40452C7.04082 6.73206 7.29265 6.48074 6.96062 6.77781C6.95299 6.78543 6.94536 6.78924 6.94154 6.79685C6.61333 7.12439 6.67439 7.44432 6.74309 7.66141C6.7469 7.67283 6.75072 7.68426 6.75453 7.69569C7.0255 8.35077 7.40714 8.96776 7.98724 9.70283L7.99105 9.70663C9.04438 11.0016 10.155 12.0108 11.38 12.784C11.5365 12.883 11.6968 12.963 11.8494 13.0392C11.9868 13.1077 12.1166 13.1725 12.2273 13.241C12.2425 13.2486 12.2578 13.2601 12.2731 13.2677C12.4028 13.3324 12.525 13.3629 12.6509 13.3629C12.9677 13.3629 13.1661 13.1649 13.231 13.1001L13.9791 12.3536C14.1088 12.2241 14.3149 12.0679 14.5553 12.0679C14.792 12.0679 14.9866 12.2165 15.1049 12.346C15.1087 12.3498 15.1087 12.3498 15.1125 12.3536L17.2154 14.4521C17.6085 14.8406 17.2192 15.6442 17.2192 15.6442Z" fill="#B6BBC9"/>
</svg>
