<svg width="16" height="16" viewBox="0 0 16 16" fill="none" xmlns="http://www.w3.org/2000/svg">
<path d="M9.88245 1.60156L11.1026 4.89903L14.4001 6.11921L11.1026 7.33938L9.88245 10.6369L8.66228 7.33938L5.3648 6.11921L8.66228 4.89903L9.88245 1.60156Z" fill="#0091FF"/>
<path d="M4.23539 9.13097L5.30128 10.7004L6.87069 11.7663L5.30128 12.8322L4.23539 14.4016L3.16951 12.8322L1.6001 11.7663L3.16951 10.7004L4.23539 9.13097Z" fill="#0091FF"/>
<path d="M9.88245 1.60156L11.1026 4.89903L14.4001 6.11921L11.1026 7.33938L9.88245 10.6369L8.66228 7.33938L5.3648 6.11921L8.66228 4.89903L9.88245 1.60156Z" stroke="#0091FF" stroke-width="1.41667" stroke-linejoin="round"/>
<path d="M4.23539 9.13097L5.30128 10.7004L6.87069 11.7663L5.30128 12.8322L4.23539 14.4016L3.16951 12.8322L1.6001 11.7663L3.16951 10.7004L4.23539 9.13097Z" stroke="#0091FF" stroke-width="1.41667" stroke-linejoin="round"/>
</svg>
